<svg xmlns="http://www.w3.org/2000/svg" viewBox="0 0 1920 1080">
  <rect x="120" y="270" width="640" height="390" rx="28" fill="#ffffff" stroke="#9fb0c2" stroke-width="10"/>
  <text x="170" y="340" font-family="Inter, Arial, sans-serif" font-size="54" font-weight="700" fill="#2e4056">STRESS MAP</text>
  <rect x="200" y="405" width="175" height="135" rx="8" fill="#e9eff5" stroke="#67798c" stroke-width="8"/>
  <path d="M375 405 L375 540" stroke="#e64a4a" stroke-width="16" stroke-linecap="round"/>
  <path d="M375 405 C420 420 445 455 452 505" fill="none" stroke="#e64a4a" stroke-width="8" stroke-linecap="round"/>
  <rect x="505" y="405" width="175" height="135" rx="62" fill="#e9eff5" stroke="#67798c" stroke-width="8"/>
  <path d="M505 540 C560 585 635 585 680 540" fill="none" stroke="#4fa3d9" stroke-width="14" stroke-linecap="round"/>
  <g fill="none" stroke="#6b7e92" stroke-width="8" stroke-linecap="round" opacity="0.85">
    <path d="M236 586 L320 586"/><path d="M550 586 L640 586"/>
    <path d="M245 610 L302 610"/><path d="M552 610 L612 610"/>
  </g>
  <rect x="1130" y="295" width="560" height="330" rx="32" fill="#eaf2fb" stroke="#9fb0c2" stroke-width="10"/>
  <text x="1190" y="370" font-family="Inter, Arial, sans-serif" font-size="48" font-weight="700" fill="#2e4056">PRESSURE</text>
  <g fill="none" stroke="#3d8fc4" stroke-width="18" stroke-linecap="round" opacity="0.85">
    <path d="M1280 520 L1380 445"/><path d="M1495 445 L1585 520"/>
    <path d="M1325 550 L1450 475"/><path d="M1450 475 L1538 550"/>
  </g>
</svg>
