<svg xmlns="http://www.w3.org/2000/svg" viewBox="0 0 1920 1080" width="1920" height="1080">


    <rect x="0" y="720" width="1920" height="125" fill="#B8BEC4" stroke="#111111" stroke-width="10"/>
    <rect x="0" y="845" width="1920" height="235" fill="#4A4D52"/>
    <line x1="100" y1="960" x2="1820" y2="960" stroke="#FFFFFF" stroke-width="16" stroke-dasharray="120 80"/>
    <line x1="80" y1="100" x2="45" y2="225" stroke="#C7E8FF" stroke-width="8" stroke-linecap="round"/><line x1="215" y1="100" x2="180" y2="225" stroke="#C7E8FF" stroke-width="8" stroke-linecap="round"/><line x1="350" y1="100" x2="315" y2="225" stroke="#C7E8FF" stroke-width="8" stroke-linecap="round"/><line x1="485" y1="100" x2="450" y2="225" stroke="#C7E8FF" stroke-width="8" stroke-linecap="round"/><line x1="620" y1="100" x2="585" y2="225" stroke="#C7E8FF" stroke-width="8" stroke-linecap="round"/><line x1="755" y1="100" x2="720" y2="225" stroke="#C7E8FF" stroke-width="8" stroke-linecap="round"/><line x1="890" y1="100" x2="855" y2="225" stroke="#C7E8FF" stroke-width="8" stroke-linecap="round"/><line x1="1025" y1="100" x2="990" y2="225" stroke="#C7E8FF" stroke-width="8" stroke-linecap="round"/><line x1="1160" y1="100" x2="1125" y2="225" stroke="#C7E8FF" stroke-width="8" stroke-linecap="round"/><line x1="1295" y1="100" x2="1260" y2="225" stroke="#C7E8FF" stroke-width="8" stroke-linecap="round"/><line x1="1430" y1="100" x2="1395" y2="225" stroke="#C7E8FF" stroke-width="8" stroke-linecap="round"/><line x1="1565" y1="100" x2="1530" y2="225" stroke="#C7E8FF" stroke-width="8" stroke-linecap="round"/><line x1="1700" y1="100" x2="1665" y2="225" stroke="#C7E8FF" stroke-width="8" stroke-linecap="round"/><line x1="1835" y1="100" x2="1800" y2="225" stroke="#C7E8FF" stroke-width="8" stroke-linecap="round"/>
</svg>
