<svg xmlns="http://www.w3.org/2000/svg" viewBox="0 0 1920 1080" role="img" aria-label="Curated cartoon airport terminal scene plate">
  <defs><linearGradient id="glass" x1="0" y1="0" x2="0" y2="1"><stop offset="0" stop-color="#DBEAFE"/><stop offset="1" stop-color="#BAE6FD"/></linearGradient><linearGradient id="floor" x1="0" y1="0" x2="0" y2="1"><stop offset="0" stop-color="#E2E8F0"/><stop offset="1" stop-color="#94A3B8"/></linearGradient><filter id="shadow"><feDropShadow dx="0" dy="18" stdDeviation="16" flood-color="#0F172A" flood-opacity=".16"/></filter></defs>
  <rect width="1920" height="1080" fill="#F8FAFC"/>
  <rect x="96" y="98" width="1728" height="480" rx="36" fill="url(#glass)" stroke="#CBD5E1" stroke-width="18" filter="url(#shadow)"/>
  <g stroke="#F8FAFC" stroke-width="14"><path d="M384 104 V574"/><path d="M704 104 V574"/><path d="M1024 104 V574"/><path d="M1344 104 V574"/><path d="M96 338 H1824"/></g>
  <path d="M210 480 C470 390 780 390 1020 480" stroke="#64748B" stroke-width="42" stroke-linecap="round" opacity=".45"/>
  <path d="M0 660 C520 628 1300 628 1920 660 L1920 1080 L0 1080 Z" fill="url(#floor)"/>
  <g filter="url(#shadow)"><rect x="250" y="648" width="500" height="116" rx="30" fill="#1E293B"/><path d="M300 706 H700" stroke="#38BDF8" stroke-width="20" stroke-linecap="round"/></g>
  <g filter="url(#shadow)"><rect x="1160" y="602" width="430" height="172" rx="34" fill="#F8FAFC" stroke="#CBD5E1" stroke-width="10"/><path d="M1220 678 H1530" stroke="#94A3B8" stroke-width="20" stroke-linecap="round"/><path d="M1220 728 H1440" stroke="#94A3B8" stroke-width="16" stroke-linecap="round"/></g>
  <ellipse cx="960" cy="920" rx="760" ry="72" fill="#0F172A" opacity=".10"/>
</svg>
